<svg xmlns="http://www.w3.org/2000/svg" viewBox="0 0 600 600" role="img" aria-labelledby="title desc">
  <title id="title">Mars</title>
  <desc id="desc">An illustrated orange-red Mars.</desc>
  <rect width="600" height="600" fill="#e7f3f0"/>
  <circle cx="300" cy="300" r="176" fill="#d9543f"/>
  <path d="M176 278c62-38 109 14 174-21 38-20 62-12 82 1 13 9 21 22 26 36-64-16-112 33-184 15-45-11-73-4-98 11-3-14-3-28 0-42z" fill="#f08a46"/>
  <path d="M229 190c42-22 82-24 120-9-14 16-34 28-61 28-22 0-41-6-59-19z" fill="#f5c84c" opacity="0.7"/>
  <circle cx="230" cy="360" r="24" fill="#9f3d30" opacity="0.65"/>
  <circle cx="364" cy="398" r="34" fill="#9f3d30" opacity="0.5"/>
</svg>
